<mxfile host="app.diagrams.net" agent="Mozilla/5.0 (Macintosh; Intel Mac OS X 10_15_7) AppleWebKit/537.36 (KHTML, like Gecko) Chrome/130.0.0.0 Safari/537.36" version="24.8.4">
  <diagram name="Page-1" id="r1OpoTFIJI1QGjzTReuq">
    <mxGraphModel dx="1036" dy="657" grid="1" gridSize="10" guides="1" tooltips="1" connect="1" arrows="1" fold="1" page="1" pageScale="1" pageWidth="827" pageHeight="1169" math="0" shadow="0">
      <root>
        <mxCell id="0" />
        <mxCell id="1" parent="0" />
        <mxCell id="LfGa4cbo2MMsYCabafI7-5" value="" style="swimlane;startSize=0;" vertex="1" parent="1">
          <mxGeometry y="40" width="819" height="600" as="geometry" />
        </mxCell>
        <mxCell id="LfGa4cbo2MMsYCabafI7-1" value="" style="shape=waypoint;sketch=0;fillStyle=solid;size=6;pointerEvents=1;points=[];fillColor=none;resizable=0;rotatable=0;perimeter=centerPerimeter;snapToPoint=1;strokeWidth=4;" vertex="1" parent="LfGa4cbo2MMsYCabafI7-5">
          <mxGeometry x="70" y="40" width="20" height="20" as="geometry" />
        </mxCell>
        <mxCell id="LfGa4cbo2MMsYCabafI7-3" value="Signup/Login" style="rounded=1;whiteSpace=wrap;html=1;" vertex="1" parent="LfGa4cbo2MMsYCabafI7-5">
          <mxGeometry x="20" y="80" width="120" height="30" as="geometry" />
        </mxCell>
        <mxCell id="LfGa4cbo2MMsYCabafI7-4" value="" style="endArrow=classic;html=1;rounded=0;entryX=0.5;entryY=0;entryDx=0;entryDy=0;" edge="1" parent="LfGa4cbo2MMsYCabafI7-5" source="LfGa4cbo2MMsYCabafI7-1" target="LfGa4cbo2MMsYCabafI7-3">
          <mxGeometry width="50" height="50" relative="1" as="geometry">
            <mxPoint x="370" y="310" as="sourcePoint" />
            <mxPoint x="420" y="260" as="targetPoint" />
          </mxGeometry>
        </mxCell>
        <mxCell id="LfGa4cbo2MMsYCabafI7-6" value="User" style="text;html=1;align=center;verticalAlign=middle;whiteSpace=wrap;rounded=0;" vertex="1" parent="LfGa4cbo2MMsYCabafI7-5">
          <mxGeometry x="50" y="20" width="60" height="30" as="geometry" />
        </mxCell>
        <mxCell id="LfGa4cbo2MMsYCabafI7-10" value="" style="line;strokeWidth=2;direction=south;html=1;" vertex="1" parent="LfGa4cbo2MMsYCabafI7-5">
          <mxGeometry x="240" width="10" height="600" as="geometry" />
        </mxCell>
        <mxCell id="LfGa4cbo2MMsYCabafI7-11" value="&lt;font style=&quot;font-size: 14px;&quot;&gt;&lt;b&gt;Authentication&lt;/b&gt;&lt;/font&gt;" style="text;html=1;align=center;verticalAlign=middle;whiteSpace=wrap;rounded=0;" vertex="1" parent="LfGa4cbo2MMsYCabafI7-5">
          <mxGeometry x="274.5" width="110" height="30" as="geometry" />
        </mxCell>
        <mxCell id="LfGa4cbo2MMsYCabafI7-12" value="Validate Credentials" style="rounded=1;whiteSpace=wrap;html=1;" vertex="1" parent="LfGa4cbo2MMsYCabafI7-5">
          <mxGeometry x="269.5" y="80" width="120" height="30" as="geometry" />
        </mxCell>
        <mxCell id="LfGa4cbo2MMsYCabafI7-13" value="" style="endArrow=classic;html=1;rounded=0;entryX=0;entryY=0.5;entryDx=0;entryDy=0;exitX=1;exitY=0.5;exitDx=0;exitDy=0;" edge="1" parent="LfGa4cbo2MMsYCabafI7-5" source="LfGa4cbo2MMsYCabafI7-3" target="LfGa4cbo2MMsYCabafI7-12">
          <mxGeometry width="50" height="50" relative="1" as="geometry">
            <mxPoint x="140" y="120" as="sourcePoint" />
            <mxPoint x="190" y="70" as="targetPoint" />
          </mxGeometry>
        </mxCell>
        <mxCell id="LfGa4cbo2MMsYCabafI7-14" value="Credentials&lt;div&gt;match&lt;/div&gt;" style="rhombus;whiteSpace=wrap;html=1;" vertex="1" parent="LfGa4cbo2MMsYCabafI7-5">
          <mxGeometry x="285" y="135" width="89" height="80" as="geometry" />
        </mxCell>
        <mxCell id="LfGa4cbo2MMsYCabafI7-15" value="" style="endArrow=classic;html=1;rounded=0;exitX=0;exitY=0.5;exitDx=0;exitDy=0;entryX=0.5;entryY=1;entryDx=0;entryDy=0;" edge="1" parent="LfGa4cbo2MMsYCabafI7-5" source="LfGa4cbo2MMsYCabafI7-14" target="LfGa4cbo2MMsYCabafI7-3">
          <mxGeometry width="50" height="50" relative="1" as="geometry">
            <mxPoint x="131" y="210" as="sourcePoint" />
            <mxPoint x="181" y="160" as="targetPoint" />
            <Array as="points">
              <mxPoint x="80" y="175" />
            </Array>
          </mxGeometry>
        </mxCell>
        <mxCell id="LfGa4cbo2MMsYCabafI7-16" value="NO" style="text;html=1;align=center;verticalAlign=middle;whiteSpace=wrap;rounded=0;" vertex="1" parent="LfGa4cbo2MMsYCabafI7-5">
          <mxGeometry x="240" y="150" width="60" height="30" as="geometry" />
        </mxCell>
        <mxCell id="LfGa4cbo2MMsYCabafI7-17" value="" style="line;strokeWidth=2;direction=south;html=1;" vertex="1" parent="LfGa4cbo2MMsYCabafI7-5">
          <mxGeometry x="411" width="10" height="600" as="geometry" />
        </mxCell>
        <mxCell id="LfGa4cbo2MMsYCabafI7-18" value="&lt;font style=&quot;font-size: 14px;&quot;&gt;&lt;b&gt;AlgoArena Platform&lt;/b&gt;&lt;/font&gt;" style="text;html=1;align=center;verticalAlign=middle;whiteSpace=wrap;rounded=0;" vertex="1" parent="LfGa4cbo2MMsYCabafI7-5">
          <mxGeometry x="445.75" width="139" height="30" as="geometry" />
        </mxCell>
        <mxCell id="LfGa4cbo2MMsYCabafI7-19" value="" style="endArrow=classic;html=1;rounded=0;exitX=0.5;exitY=1;exitDx=0;exitDy=0;entryX=0.5;entryY=0;entryDx=0;entryDy=0;" edge="1" parent="LfGa4cbo2MMsYCabafI7-5" source="LfGa4cbo2MMsYCabafI7-12" target="LfGa4cbo2MMsYCabafI7-14">
          <mxGeometry width="50" height="50" relative="1" as="geometry">
            <mxPoint x="371" y="310" as="sourcePoint" />
            <mxPoint x="421" y="260" as="targetPoint" />
          </mxGeometry>
        </mxCell>
        <mxCell id="LfGa4cbo2MMsYCabafI7-20" value="Access AlgoArena Platform" style="rounded=1;whiteSpace=wrap;html=1;" vertex="1" parent="LfGa4cbo2MMsYCabafI7-5">
          <mxGeometry x="445.75" y="160" width="169.5" height="30" as="geometry" />
        </mxCell>
        <mxCell id="LfGa4cbo2MMsYCabafI7-21" value="" style="endArrow=classic;html=1;rounded=0;exitX=1;exitY=0.5;exitDx=0;exitDy=0;entryX=0;entryY=0.5;entryDx=0;entryDy=0;" edge="1" parent="LfGa4cbo2MMsYCabafI7-5" source="LfGa4cbo2MMsYCabafI7-14" target="LfGa4cbo2MMsYCabafI7-20">
          <mxGeometry width="50" height="50" relative="1" as="geometry">
            <mxPoint x="371" y="330" as="sourcePoint" />
            <mxPoint x="421" y="280" as="targetPoint" />
          </mxGeometry>
        </mxCell>
        <mxCell id="LfGa4cbo2MMsYCabafI7-22" value="YES" style="text;html=1;align=center;verticalAlign=middle;whiteSpace=wrap;rounded=0;" vertex="1" parent="LfGa4cbo2MMsYCabafI7-5">
          <mxGeometry x="364" y="150" width="60" height="30" as="geometry" />
        </mxCell>
        <mxCell id="LfGa4cbo2MMsYCabafI7-23" value="Select Activity" style="rounded=1;whiteSpace=wrap;html=1;" vertex="1" parent="LfGa4cbo2MMsYCabafI7-5">
          <mxGeometry x="470.5" y="210" width="120" height="30" as="geometry" />
        </mxCell>
        <mxCell id="LfGa4cbo2MMsYCabafI7-24" value="" style="endArrow=classic;html=1;rounded=0;exitX=0.5;exitY=1;exitDx=0;exitDy=0;entryX=0.5;entryY=0;entryDx=0;entryDy=0;" edge="1" parent="LfGa4cbo2MMsYCabafI7-5" source="LfGa4cbo2MMsYCabafI7-20" target="LfGa4cbo2MMsYCabafI7-23">
          <mxGeometry width="50" height="50" relative="1" as="geometry">
            <mxPoint x="371" y="330" as="sourcePoint" />
            <mxPoint x="421" y="280" as="targetPoint" />
          </mxGeometry>
        </mxCell>
        <mxCell id="LfGa4cbo2MMsYCabafI7-28" value="" style="line;strokeWidth=4;fillColor=none;align=left;verticalAlign=middle;spacingTop=-1;spacingLeft=3;spacingRight=3;rotatable=0;labelPosition=right;points=[];portConstraint=eastwest;strokeColor=inherit;" vertex="1" parent="LfGa4cbo2MMsYCabafI7-5">
          <mxGeometry x="10" y="240" width="230" height="8" as="geometry" />
        </mxCell>
        <mxCell id="LfGa4cbo2MMsYCabafI7-29" value="" style="endArrow=classic;html=1;rounded=0;exitX=0;exitY=0.5;exitDx=0;exitDy=0;entryX=0.509;entryY=0.375;entryDx=0;entryDy=0;entryPerimeter=0;" edge="1" parent="LfGa4cbo2MMsYCabafI7-5" source="LfGa4cbo2MMsYCabafI7-23" target="LfGa4cbo2MMsYCabafI7-28">
          <mxGeometry width="50" height="50" relative="1" as="geometry">
            <mxPoint x="371" y="330" as="sourcePoint" />
            <mxPoint x="421" y="280" as="targetPoint" />
            <Array as="points">
              <mxPoint x="127" y="225" />
            </Array>
          </mxGeometry>
        </mxCell>
        <mxCell id="LfGa4cbo2MMsYCabafI7-30" value="Problems" style="rounded=1;whiteSpace=wrap;html=1;" vertex="1" parent="LfGa4cbo2MMsYCabafI7-5">
          <mxGeometry x="90" y="260" width="70" height="30" as="geometry" />
        </mxCell>
        <mxCell id="LfGa4cbo2MMsYCabafI7-31" value="Discuss" style="rounded=1;whiteSpace=wrap;html=1;" vertex="1" parent="LfGa4cbo2MMsYCabafI7-5">
          <mxGeometry x="10" y="260" width="70" height="30" as="geometry" />
        </mxCell>
        <mxCell id="LfGa4cbo2MMsYCabafI7-32" value="Contest" style="rounded=1;whiteSpace=wrap;html=1;" vertex="1" parent="LfGa4cbo2MMsYCabafI7-5">
          <mxGeometry x="170" y="260" width="70" height="30" as="geometry" />
        </mxCell>
        <mxCell id="LfGa4cbo2MMsYCabafI7-33" value="" style="endArrow=classic;html=1;rounded=0;entryX=0.5;entryY=0;entryDx=0;entryDy=0;exitX=0.501;exitY=0.336;exitDx=0;exitDy=0;exitPerimeter=0;" edge="1" parent="LfGa4cbo2MMsYCabafI7-5" source="LfGa4cbo2MMsYCabafI7-28" target="LfGa4cbo2MMsYCabafI7-30">
          <mxGeometry width="50" height="50" relative="1" as="geometry">
            <mxPoint x="45" y="310" as="sourcePoint" />
            <mxPoint x="450" y="280" as="targetPoint" />
          </mxGeometry>
        </mxCell>
        <mxCell id="LfGa4cbo2MMsYCabafI7-34" value="" style="endArrow=classic;html=1;rounded=0;entryX=0.5;entryY=0;entryDx=0;entryDy=0;exitX=0.152;exitY=0.277;exitDx=0;exitDy=0;exitPerimeter=0;" edge="1" parent="LfGa4cbo2MMsYCabafI7-5" source="LfGa4cbo2MMsYCabafI7-28" target="LfGa4cbo2MMsYCabafI7-31">
          <mxGeometry width="50" height="50" relative="1" as="geometry">
            <mxPoint x="400" y="310" as="sourcePoint" />
            <mxPoint x="450" y="260" as="targetPoint" />
          </mxGeometry>
        </mxCell>
        <mxCell id="LfGa4cbo2MMsYCabafI7-35" value="" style="endArrow=classic;html=1;rounded=0;exitX=0.849;exitY=0.348;exitDx=0;exitDy=0;exitPerimeter=0;entryX=0.5;entryY=0;entryDx=0;entryDy=0;" edge="1" parent="LfGa4cbo2MMsYCabafI7-5" source="LfGa4cbo2MMsYCabafI7-28" target="LfGa4cbo2MMsYCabafI7-32">
          <mxGeometry width="50" height="50" relative="1" as="geometry">
            <mxPoint x="170" y="330" as="sourcePoint" />
            <mxPoint x="220" y="280" as="targetPoint" />
          </mxGeometry>
        </mxCell>
        <mxCell id="LfGa4cbo2MMsYCabafI7-36" value="" style="line;strokeWidth=2;direction=south;html=1;" vertex="1" parent="LfGa4cbo2MMsYCabafI7-5">
          <mxGeometry x="630" width="10" height="600" as="geometry" />
        </mxCell>
        <mxCell id="LfGa4cbo2MMsYCabafI7-37" value="&lt;font style=&quot;font-size: 14px;&quot;&gt;&lt;b&gt;Evaluation&lt;/b&gt;&lt;/font&gt;" style="text;html=1;align=center;verticalAlign=middle;whiteSpace=wrap;rounded=0;" vertex="1" parent="LfGa4cbo2MMsYCabafI7-5">
          <mxGeometry x="690" width="80" height="30" as="geometry" />
        </mxCell>
        <mxCell id="LfGa4cbo2MMsYCabafI7-38" value="Evaluate Problem" style="rounded=1;whiteSpace=wrap;html=1;" vertex="1" parent="LfGa4cbo2MMsYCabafI7-5">
          <mxGeometry x="670" y="320" width="120" height="30" as="geometry" />
        </mxCell>
        <mxCell id="LfGa4cbo2MMsYCabafI7-39" value="" style="endArrow=classic;html=1;rounded=0;exitX=0.5;exitY=1;exitDx=0;exitDy=0;entryX=0.5;entryY=0;entryDx=0;entryDy=0;" edge="1" parent="LfGa4cbo2MMsYCabafI7-5" source="LfGa4cbo2MMsYCabafI7-32" target="LfGa4cbo2MMsYCabafI7-38">
          <mxGeometry width="50" height="50" relative="1" as="geometry">
            <mxPoint x="400" y="300" as="sourcePoint" />
            <mxPoint x="450" y="250" as="targetPoint" />
            <Array as="points">
              <mxPoint x="205" y="300" />
              <mxPoint x="730" y="300" />
            </Array>
          </mxGeometry>
        </mxCell>
        <mxCell id="LfGa4cbo2MMsYCabafI7-40" value="" style="endArrow=classic;html=1;rounded=0;entryX=0;entryY=0.5;entryDx=0;entryDy=0;exitX=0.5;exitY=1;exitDx=0;exitDy=0;" edge="1" parent="LfGa4cbo2MMsYCabafI7-5" source="LfGa4cbo2MMsYCabafI7-30" target="LfGa4cbo2MMsYCabafI7-38">
          <mxGeometry width="50" height="50" relative="1" as="geometry">
            <mxPoint x="370" y="380" as="sourcePoint" />
            <mxPoint x="420" y="330" as="targetPoint" />
            <Array as="points">
              <mxPoint x="125" y="335" />
            </Array>
          </mxGeometry>
        </mxCell>
        <mxCell id="LfGa4cbo2MMsYCabafI7-41" value="is it a contest" style="rhombus;whiteSpace=wrap;html=1;" vertex="1" parent="LfGa4cbo2MMsYCabafI7-5">
          <mxGeometry x="695" y="370" width="70" height="60" as="geometry" />
        </mxCell>
        <mxCell id="LfGa4cbo2MMsYCabafI7-42" value="" style="endArrow=classic;html=1;rounded=0;exitX=0.5;exitY=1;exitDx=0;exitDy=0;entryX=0.5;entryY=0;entryDx=0;entryDy=0;" edge="1" parent="LfGa4cbo2MMsYCabafI7-5" source="LfGa4cbo2MMsYCabafI7-38" target="LfGa4cbo2MMsYCabafI7-41">
          <mxGeometry width="50" height="50" relative="1" as="geometry">
            <mxPoint x="370" y="380" as="sourcePoint" />
            <mxPoint x="420" y="330" as="targetPoint" />
          </mxGeometry>
        </mxCell>
        <mxCell id="LfGa4cbo2MMsYCabafI7-43" value="Calculate Ratings" style="rounded=1;whiteSpace=wrap;html=1;" vertex="1" parent="LfGa4cbo2MMsYCabafI7-5">
          <mxGeometry x="670" y="450" width="120" height="30" as="geometry" />
        </mxCell>
        <mxCell id="LfGa4cbo2MMsYCabafI7-44" value="" style="endArrow=classic;html=1;rounded=0;exitX=0.5;exitY=1;exitDx=0;exitDy=0;entryX=0.5;entryY=0;entryDx=0;entryDy=0;" edge="1" parent="LfGa4cbo2MMsYCabafI7-5" source="LfGa4cbo2MMsYCabafI7-41" target="LfGa4cbo2MMsYCabafI7-43">
          <mxGeometry width="50" height="50" relative="1" as="geometry">
            <mxPoint x="370" y="380" as="sourcePoint" />
            <mxPoint x="420" y="330" as="targetPoint" />
          </mxGeometry>
        </mxCell>
        <mxCell id="LfGa4cbo2MMsYCabafI7-45" value="YES" style="text;html=1;align=center;verticalAlign=middle;whiteSpace=wrap;rounded=0;" vertex="1" parent="LfGa4cbo2MMsYCabafI7-5">
          <mxGeometry x="720" y="420" width="60" height="30" as="geometry" />
        </mxCell>
        <mxCell id="LfGa4cbo2MMsYCabafI7-47" value="" style="line;strokeWidth=4;fillColor=none;align=left;verticalAlign=middle;spacingTop=-1;spacingLeft=3;spacingRight=3;rotatable=0;labelPosition=right;points=[];portConstraint=eastwest;strokeColor=inherit;" vertex="1" parent="LfGa4cbo2MMsYCabafI7-5">
          <mxGeometry x="10" y="480" width="230" height="8" as="geometry" />
        </mxCell>
        <mxCell id="LfGa4cbo2MMsYCabafI7-48" value="" style="edgeStyle=segmentEdgeStyle;endArrow=classic;html=1;curved=0;rounded=0;endSize=8;startSize=8;exitX=0;exitY=0.5;exitDx=0;exitDy=0;entryX=0.496;entryY=0.406;entryDx=0;entryDy=0;entryPerimeter=0;" edge="1" parent="LfGa4cbo2MMsYCabafI7-5" source="LfGa4cbo2MMsYCabafI7-41" target="LfGa4cbo2MMsYCabafI7-47">
          <mxGeometry width="50" height="50" relative="1" as="geometry">
            <mxPoint x="340" y="380" as="sourcePoint" />
            <mxPoint x="390" y="330" as="targetPoint" />
          </mxGeometry>
        </mxCell>
        <mxCell id="LfGa4cbo2MMsYCabafI7-49" value="" style="edgeStyle=segmentEdgeStyle;endArrow=classic;html=1;curved=0;rounded=0;endSize=8;startSize=8;exitX=0;exitY=0.5;exitDx=0;exitDy=0;entryX=0.85;entryY=0.181;entryDx=0;entryDy=0;entryPerimeter=0;" edge="1" parent="LfGa4cbo2MMsYCabafI7-5" source="LfGa4cbo2MMsYCabafI7-43" target="LfGa4cbo2MMsYCabafI7-47">
          <mxGeometry width="50" height="50" relative="1" as="geometry">
            <mxPoint x="340" y="380" as="sourcePoint" />
            <mxPoint x="390" y="330" as="targetPoint" />
          </mxGeometry>
        </mxCell>
        <mxCell id="LfGa4cbo2MMsYCabafI7-50" value="" style="endArrow=classic;html=1;rounded=0;exitX=0.5;exitY=1;exitDx=0;exitDy=0;entryX=0.15;entryY=0.458;entryDx=0;entryDy=0;entryPerimeter=0;" edge="1" parent="LfGa4cbo2MMsYCabafI7-5" source="LfGa4cbo2MMsYCabafI7-31" target="LfGa4cbo2MMsYCabafI7-47">
          <mxGeometry width="50" height="50" relative="1" as="geometry">
            <mxPoint x="340" y="380" as="sourcePoint" />
            <mxPoint x="390" y="330" as="targetPoint" />
          </mxGeometry>
        </mxCell>
        <mxCell id="LfGa4cbo2MMsYCabafI7-51" value="" style="ellipse;html=1;shape=endState;fillColor=#000000;strokeColor=#330000;" vertex="1" parent="LfGa4cbo2MMsYCabafI7-5">
          <mxGeometry x="110" y="570" width="30" height="30" as="geometry" />
        </mxCell>
        <mxCell id="LfGa4cbo2MMsYCabafI7-52" value="Logout" style="rounded=1;whiteSpace=wrap;html=1;" vertex="1" parent="LfGa4cbo2MMsYCabafI7-5">
          <mxGeometry x="95" y="515" width="60" height="30" as="geometry" />
        </mxCell>
        <mxCell id="LfGa4cbo2MMsYCabafI7-53" value="" style="endArrow=classic;html=1;rounded=0;exitX=0.503;exitY=0.375;exitDx=0;exitDy=0;exitPerimeter=0;entryX=0.5;entryY=0;entryDx=0;entryDy=0;" edge="1" parent="LfGa4cbo2MMsYCabafI7-5" source="LfGa4cbo2MMsYCabafI7-47" target="LfGa4cbo2MMsYCabafI7-52">
          <mxGeometry width="50" height="50" relative="1" as="geometry">
            <mxPoint x="440" y="560" as="sourcePoint" />
            <mxPoint x="490" y="510" as="targetPoint" />
          </mxGeometry>
        </mxCell>
        <mxCell id="LfGa4cbo2MMsYCabafI7-54" value="" style="endArrow=classic;html=1;rounded=0;exitX=0.5;exitY=1;exitDx=0;exitDy=0;" edge="1" parent="LfGa4cbo2MMsYCabafI7-5" source="LfGa4cbo2MMsYCabafI7-52" target="LfGa4cbo2MMsYCabafI7-51">
          <mxGeometry width="50" height="50" relative="1" as="geometry">
            <mxPoint x="370" y="420" as="sourcePoint" />
            <mxPoint x="420" y="370" as="targetPoint" />
          </mxGeometry>
        </mxCell>
        <mxCell id="LfGa4cbo2MMsYCabafI7-55" value="&lt;font style=&quot;font-size: 14px;&quot;&gt;&lt;b&gt;Frontend&lt;/b&gt;&lt;/font&gt;" style="text;html=1;align=center;verticalAlign=middle;whiteSpace=wrap;rounded=0;" vertex="1" parent="LfGa4cbo2MMsYCabafI7-5">
          <mxGeometry x="95" width="60" height="30" as="geometry" />
        </mxCell>
      </root>
    </mxGraphModel>
  </diagram>
</mxfile>
